<svg width="29" height="20" viewBox="0 0 29 20" fill="none" xmlns="http://www.w3.org/2000/svg">
<rect width="29" height="20" rx="5" fill="#7F22FE"/>
<path d="M20.1527 12.5H16.8327L16.2327 15H12.5527L16.2327 3.6H20.9327L24.4527 15H20.7527L20.1527 12.5ZM18.4727 6.06L17.2927 10.28H19.6727L18.5527 6.06H18.4727Z" fill="white"/>
<path d="M14.313 14.62C13.8197 14.8333 13.2464 14.9867 12.593 15.08C11.9397 15.1733 11.333 15.22 10.773 15.22C8.95971 15.22 7.53971 14.7467 6.51305 13.8C5.48638 12.8533 4.97305 11.4 4.97305 9.44C4.97305 7.44 5.51305 5.94667 6.59305 4.96C7.67305 3.96 9.19305 3.46 11.153 3.46C12.0864 3.46 13.0597 3.58667 14.073 3.84C14.073 4.10667 14.0464 4.50667 13.993 5.04C13.9397 5.56 13.8864 5.92667 13.833 6.14H12.573C11.653 6.14 10.9264 6.16 10.393 6.2C9.87305 6.22667 9.55971 6.28667 9.45305 6.38C9.25305 6.56667 9.09971 6.94667 8.99305 7.52C8.88638 8.08 8.83305 8.62 8.83305 9.14C8.83305 10.0467 8.94638 10.7467 9.17305 11.24C9.39971 11.72 9.68638 12.04 10.033 12.2C10.3664 12.36 10.9197 12.44 11.693 12.44C12.3064 12.44 13.1064 12.3867 14.093 12.28L14.313 14.62Z" fill="#EEEEEE"/>
</svg>
