<svg width="71" height="21" viewBox="0 0 71 21" fill="none" xmlns="http://www.w3.org/2000/svg">
<rect width="29" height="20" rx="5" fill="#7F22FE"/>
<path d="M20.1527 12.5H16.8327L16.2327 15H12.5527L16.2327 3.6H20.9327L24.4527 15H20.7527L20.1527 12.5ZM18.4727 6.06L17.2927 10.28H19.6727L18.5527 6.06H18.4727Z" fill="white"/>
<path d="M14.313 14.62C13.8197 14.8333 13.2464 14.9867 12.593 15.08C11.9397 15.1733 11.333 15.22 10.773 15.22C8.95971 15.22 7.53971 14.7467 6.51305 13.8C5.48638 12.8533 4.97305 11.4 4.97305 9.44C4.97305 7.44 5.51305 5.94667 6.59305 4.96C7.67305 3.96 9.19305 3.46 11.153 3.46C12.0864 3.46 13.0597 3.58667 14.073 3.84C14.073 4.10667 14.0464 4.50667 13.993 5.04C13.9397 5.56 13.8864 5.92667 13.833 6.14H12.573C11.653 6.14 10.9264 6.16 10.393 6.2C9.87305 6.22667 9.55971 6.28667 9.45305 6.38C9.25305 6.56667 9.09971 6.94667 8.99305 7.52C8.88638 8.08 8.83305 8.62 8.83305 9.14C8.83305 10.0467 8.94638 10.7467 9.17305 11.24C9.39971 11.72 9.68638 12.04 10.033 12.2C10.3664 12.36 10.9197 12.44 11.693 12.44C12.3064 12.44 13.1064 12.3867 14.093 12.28L14.313 14.62Z" fill="#EEEEEE"/>
<path d="M44.3576 8.791C44.0863 8.90833 43.771 8.99267 43.4116 9.044C43.0523 9.09533 42.7186 9.121 42.4106 9.121C41.4133 9.121 40.6323 8.86067 40.0676 8.34C39.503 7.81933 39.2206 7.02 39.2206 5.942C39.2206 4.842 39.5176 4.02067 40.1116 3.478C40.7056 2.928 41.5416 2.653 42.6196 2.653C43.133 2.653 43.6683 2.72267 44.2256 2.862C44.2256 3.00867 44.211 3.22867 44.1816 3.522C44.1523 3.808 44.123 4.00967 44.0936 4.127H43.4006C42.8946 4.127 42.495 4.138 42.2016 4.16C41.9156 4.17467 41.7433 4.20767 41.6846 4.259C41.5746 4.36167 41.4903 4.57067 41.4316 4.886C41.373 5.194 41.3436 5.491 41.3436 5.777C41.3436 6.27567 41.406 6.66067 41.5306 6.932C41.6553 7.196 41.813 7.372 42.0036 7.46C42.187 7.548 42.4913 7.592 42.9166 7.592C43.254 7.592 43.694 7.56267 44.2366 7.504L44.3576 8.791ZM45.9603 3.313C45.7109 3.313 45.4946 3.22867 45.3113 3.06C45.1353 2.89133 45.0473 2.68967 45.0473 2.455C45.0473 2.22033 45.1353 2.01867 45.3113 1.85C45.4946 1.68133 45.7109 1.597 45.9603 1.597C46.2096 1.597 46.4223 1.68133 46.5983 1.85C46.7743 2.01867 46.8623 2.22033 46.8623 2.455C46.8623 2.68967 46.7743 2.89133 46.5983 3.06C46.4223 3.22867 46.2096 3.313 45.9603 3.313ZM45.0143 3.94H46.8953V9H45.0143V3.94ZM50.16 6.921C50.16 7.053 50.1636 7.19233 50.171 7.339C50.1783 7.47833 50.2003 7.56633 50.237 7.603C50.2883 7.65433 50.468 7.68 50.776 7.68L51.15 7.669C51.216 8.021 51.249 8.428 51.249 8.89C51.1096 8.94133 50.9043 8.989 50.633 9.033C50.369 9.077 50.116 9.099 49.874 9.099C49.368 9.099 48.9756 8.989 48.697 8.769C48.4256 8.54167 48.29 8.19333 48.29 7.724V5.018H47.465V4.017L48.29 3.94L48.785 2.73L50.16 2.653V3.94H51.326V5.018H50.16V6.921ZM57.1245 3.94L55.8045 8.175C55.5478 8.989 55.3168 9.57933 55.1115 9.946C54.9062 10.32 54.7008 10.5803 54.4955 10.727C54.3782 10.8077 54.1912 10.87 53.9345 10.914C53.6852 10.958 53.4138 10.98 53.1205 10.98C52.6805 10.98 52.3285 10.9397 52.0645 10.859C52.0572 10.683 52.0645 10.4667 52.0865 10.21C52.1085 9.96067 52.1378 9.748 52.1745 9.572C52.4825 9.58667 52.7832 9.594 53.0765 9.594C53.2965 9.594 53.4615 9.59033 53.5715 9.583C53.6815 9.37033 53.7842 9.14667 53.8795 8.912L53.1205 8.868L51.4265 3.94H53.4175L54.2975 7.482L54.3085 7.691H54.3415L55.1335 3.94H57.1245ZM33.6551 17.625H31.8291L31.4991 19H29.4751L31.4991 12.73H34.0841L36.0201 19H33.9851L33.6551 17.625ZM32.7311 14.083L32.0821 16.404H33.3911L32.7751 14.083H32.7311ZM41.3631 14.259C41.4291 14.3397 41.4768 14.5413 41.5061 14.864C41.5428 15.1867 41.5611 15.678 41.5611 16.338V19H39.6801V16.36V15.909C39.6801 15.6743 39.6618 15.5277 39.6251 15.469C39.5664 15.3957 39.4308 15.359 39.2181 15.359C39.1154 15.359 39.0384 15.3627 38.9871 15.37C38.7818 15.3773 38.5691 15.425 38.3491 15.513V19H36.4681V13.94H37.9971L38.2061 14.787C38.7341 14.149 39.3648 13.83 40.0981 13.83C40.3621 13.83 40.6078 13.8667 40.8351 13.94C41.0698 14.0133 41.2458 14.1197 41.3631 14.259ZM45.444 19L45.268 18.307C44.9307 18.857 44.4613 19.132 43.86 19.132C43.3687 19.132 42.9653 18.9963 42.65 18.725C42.342 18.4463 42.188 18.0577 42.188 17.559C42.188 17.251 42.276 16.9833 42.452 16.756C42.6353 16.5213 42.8847 16.3563 43.2 16.261C43.6107 16.1437 44.245 16.0777 45.103 16.063C45.103 15.579 45.081 15.3223 45.037 15.293C45.0003 15.2637 44.883 15.249 44.685 15.249C44.5603 15.249 44.388 15.2563 44.168 15.271C43.816 15.2857 43.3393 15.326 42.738 15.392C42.6793 14.996 42.6353 14.5707 42.606 14.116C42.9947 14.0353 43.4017 13.9693 43.827 13.918C44.2523 13.8593 44.6337 13.83 44.971 13.83C45.5577 13.83 45.9977 13.929 46.291 14.127C46.5843 14.3177 46.775 14.5707 46.863 14.886C46.951 15.2013 46.9913 15.601 46.984 16.085L46.973 17.702L47.006 19H45.444ZM44.498 17.9C44.6887 17.9 44.8903 17.8633 45.103 17.79V16.976H45.015C44.4723 16.976 44.1717 17.0053 44.113 17.064C44.0763 17.1007 44.047 17.1557 44.025 17.229C44.0103 17.3023 44.003 17.372 44.003 17.438C44.003 17.614 44.0433 17.735 44.124 17.801C44.2047 17.867 44.3293 17.9 44.498 17.9ZM47.8663 12.4L49.7473 12.323V19H47.8663V12.4ZM55.916 13.94L54.596 18.175C54.3393 18.989 54.1083 19.5793 53.903 19.946C53.6977 20.32 53.4923 20.5803 53.287 20.727C53.1697 20.8077 52.9827 20.87 52.726 20.914C52.4767 20.958 52.2053 20.98 51.912 20.98C51.472 20.98 51.12 20.9397 50.856 20.859C50.8487 20.683 50.856 20.4667 50.878 20.21C50.9 19.9607 50.9293 19.748 50.966 19.572C51.274 19.5867 51.5747 19.594 51.868 19.594C52.088 19.594 52.253 19.5903 52.363 19.583C52.473 19.3703 52.5757 19.1467 52.671 18.912L51.912 18.868L50.218 13.94H52.209L53.089 17.482L53.1 17.691H53.133L53.925 13.94H55.916ZM60.4439 17.284C60.4439 17.9367 60.2349 18.406 59.8169 18.692C59.4062 18.978 58.8195 19.121 58.0569 19.121C57.5215 19.121 56.9055 19.044 56.2089 18.89C56.2235 18.7433 56.2565 18.5343 56.3079 18.263C56.3665 17.9843 56.4142 17.7717 56.4509 17.625C56.7149 17.669 57.0082 17.7057 57.3309 17.735C57.6535 17.757 57.9285 17.768 58.1559 17.768C58.3539 17.768 58.4749 17.757 58.5189 17.735C58.5262 17.7277 58.5335 17.7093 58.5409 17.68C58.5555 17.6433 58.5629 17.6067 58.5629 17.57C58.5629 17.4233 58.4712 17.3243 58.2879 17.273C58.2292 17.2583 58.0055 17.196 57.6169 17.086C57.2282 16.976 56.9092 16.778 56.6599 16.492C56.4179 16.1987 56.2969 15.8357 56.2969 15.403C56.2969 15.1757 56.3482 14.9227 56.4509 14.644C56.5535 14.3653 56.6635 14.1893 56.7809 14.116C56.8689 14.0573 57.0815 13.9987 57.4189 13.94C57.7562 13.874 58.0679 13.841 58.3539 13.841C58.9625 13.841 59.5749 13.885 60.1909 13.973C60.1909 14.105 60.1725 14.3287 60.1359 14.644C60.0992 14.952 60.0662 15.1463 60.0369 15.227C59.4135 15.1463 58.9112 15.106 58.5299 15.106C58.3319 15.106 58.2035 15.117 58.1449 15.139C58.1302 15.1463 58.1155 15.1683 58.1009 15.205C58.0862 15.2343 58.0789 15.2747 58.0789 15.326C58.0789 15.4287 58.1119 15.502 58.1779 15.546C58.2439 15.5973 58.4162 15.6597 58.6949 15.733C59.0249 15.8283 59.3072 15.9273 59.5419 16.03C59.7839 16.1327 59.9929 16.2867 60.1689 16.492C60.3522 16.6973 60.4439 16.9613 60.4439 17.284ZM62.0467 13.313C61.7974 13.313 61.581 13.2287 61.3977 13.06C61.2217 12.8913 61.1337 12.6897 61.1337 12.455C61.1337 12.2203 61.2217 12.0187 61.3977 11.85C61.581 11.6813 61.7974 11.597 62.0467 11.597C62.296 11.597 62.5087 11.6813 62.6847 11.85C62.8607 12.0187 62.9487 12.2203 62.9487 12.455C62.9487 12.6897 62.8607 12.8913 62.6847 13.06C62.5087 13.2287 62.296 13.313 62.0467 13.313ZM61.1007 13.94H62.9817V19H61.1007V13.94ZM68.0064 17.284C68.0064 17.9367 67.7974 18.406 67.3794 18.692C66.9687 18.978 66.382 19.121 65.6194 19.121C65.084 19.121 64.468 19.044 63.7714 18.89C63.786 18.7433 63.819 18.5343 63.8704 18.263C63.929 17.9843 63.9767 17.7717 64.0134 17.625C64.2774 17.669 64.5707 17.7057 64.8934 17.735C65.216 17.757 65.491 17.768 65.7184 17.768C65.9164 17.768 66.0374 17.757 66.0814 17.735C66.0887 17.7277 66.096 17.7093 66.1034 17.68C66.118 17.6433 66.1254 17.6067 66.1254 17.57C66.1254 17.4233 66.0337 17.3243 65.8504 17.273C65.7917 17.2583 65.568 17.196 65.1794 17.086C64.7907 16.976 64.4717 16.778 64.2224 16.492C63.9804 16.1987 63.8594 15.8357 63.8594 15.403C63.8594 15.1757 63.9107 14.9227 64.0134 14.644C64.116 14.3653 64.226 14.1893 64.3434 14.116C64.4314 14.0573 64.644 13.9987 64.9814 13.94C65.3187 13.874 65.6304 13.841 65.9164 13.841C66.525 13.841 67.1374 13.885 67.7534 13.973C67.7534 14.105 67.735 14.3287 67.6984 14.644C67.6617 14.952 67.6287 15.1463 67.5994 15.227C66.976 15.1463 66.4737 15.106 66.0924 15.106C65.8944 15.106 65.766 15.117 65.7074 15.139C65.6927 15.1463 65.678 15.1683 65.6634 15.205C65.6487 15.2343 65.6414 15.2747 65.6414 15.326C65.6414 15.4287 65.6744 15.502 65.7404 15.546C65.8064 15.5973 65.9787 15.6597 66.2574 15.733C66.5874 15.8283 66.8697 15.9273 67.1044 16.03C67.3464 16.1327 67.5554 16.2867 67.7314 16.492C67.9147 16.6973 68.0064 16.9613 68.0064 17.284Z" fill="black"/>
</svg>
